# xmcd
#
# Track frame offsets: 
#        150
#        22513
#        36035
#        54415
#        73144
#
# Disc length: 1140 seconds
#
# Revision: 0
# Processed by: cddbd v1.5.2PL0 Copyright (c) Steve Scherf et al.
# Submitted via: ExactAudioCopy v1.0b3
#
DISCID=34047205
DTITLE=Corrosion of Conformity - Megalodon
DYEAR=2012
DGENRE=Metal
TTITLE0=Feed On
TTITLE1=Priest Brains
TTITLE2=The Megalodon
TTITLE3=Strong Medicine Too Late
TTITLE4=The Vulture
EXTD=
EXTT0=
EXTT1=
EXTT2=
EXTT3=
EXTT4=
PLAYORDER=
